<svg width="252" height="21" viewBox="0 0 252 21" fill="none" xmlns="http://www.w3.org/2000/svg">
<path d="M7.50391 16H4.47656V4.24219H0.599609V1.72266H11.3809V4.24219H7.50391V16ZM19.4375 4.87695C19.8411 4.87695 20.1764 4.90625 20.4434 4.96484L20.2188 7.75781C19.9779 7.69271 19.6849 7.66016 19.3398 7.66016C18.3893 7.66016 17.6471 7.9043 17.1133 8.39258C16.5859 8.88086 16.3223 9.56445 16.3223 10.4434V16H13.3438V5.08203H15.5996L16.0391 6.91797H16.1855C16.5241 6.30599 16.9798 5.81445 17.5527 5.44336C18.1322 5.06576 18.7604 4.87695 19.4375 4.87695ZM20.8633 5.08203H24.125L26.1855 11.2246C26.3613 11.7585 26.4818 12.39 26.5469 13.1191H26.6055C26.6771 12.4486 26.8171 11.8171 27.0254 11.2246L29.0469 5.08203H32.2402L27.6211 17.3965C27.1979 18.5358 26.5924 19.3887 25.8047 19.9551C25.0234 20.5215 24.1087 20.8047 23.0605 20.8047C22.5462 20.8047 22.0417 20.7493 21.5469 20.6387V18.2754C21.9049 18.36 22.2956 18.4023 22.7188 18.4023C23.2461 18.4023 23.7051 18.2396 24.0957 17.9141C24.4928 17.5951 24.8021 17.11 25.0234 16.459L25.1992 15.9219L20.8633 5.08203ZM43.6855 7.60156L46.6641 1.72266H49.9258L45.1895 10.4434V16H42.1816V10.541L37.4453 1.72266H40.7266L43.6855 7.60156ZM53.8613 10.5215C53.8613 11.6022 54.0371 12.4193 54.3887 12.9727C54.7467 13.526 55.3262 13.8027 56.127 13.8027C56.9212 13.8027 57.4909 13.5293 57.8359 12.9824C58.1875 12.429 58.3633 11.6087 58.3633 10.5215C58.3633 9.44076 58.1875 8.63021 57.8359 8.08984C57.4844 7.54948 56.9082 7.2793 56.1074 7.2793C55.3132 7.2793 54.7402 7.54948 54.3887 8.08984C54.0371 8.6237 53.8613 9.43424 53.8613 10.5215ZM61.4102 10.5215C61.4102 12.2988 60.9414 13.6888 60.0039 14.6914C59.0664 15.694 57.7611 16.1953 56.0879 16.1953C55.0397 16.1953 54.1152 15.9674 53.3145 15.5117C52.5137 15.0495 51.8984 14.3887 51.4688 13.5293C51.0391 12.6699 50.8242 11.6673 50.8242 10.5215C50.8242 8.73763 51.2897 7.35091 52.2207 6.36133C53.1517 5.37174 54.4603 4.87695 56.1465 4.87695C57.1947 4.87695 58.1191 5.10482 58.9199 5.56055C59.7207 6.01628 60.3359 6.67057 60.7656 7.52344C61.1953 8.3763 61.4102 9.37565 61.4102 10.5215ZM71.6055 16L71.2051 14.6035H71.0488C70.7298 15.1113 70.2773 15.5052 69.6914 15.7852C69.1055 16.0586 68.4382 16.1953 67.6895 16.1953C66.4069 16.1953 65.4401 15.8535 64.7891 15.1699C64.138 14.4798 63.8125 13.4902 63.8125 12.2012V5.08203H66.791V11.459C66.791 12.2467 66.931 12.8392 67.2109 13.2363C67.4909 13.627 67.9368 13.8223 68.5488 13.8223C69.3822 13.8223 69.9844 13.5456 70.3555 12.9922C70.7266 12.4323 70.9121 11.5078 70.9121 10.2188V5.08203H73.8906V16H71.6055ZM83.1094 4.87695C83.513 4.87695 83.8483 4.90625 84.1152 4.96484L83.8906 7.75781C83.6497 7.69271 83.3568 7.66016 83.0117 7.66016C82.0612 7.66016 81.319 7.9043 80.7852 8.39258C80.2578 8.88086 79.9941 9.56445 79.9941 10.4434V16H77.0156V5.08203H79.2715L79.7109 6.91797H79.8574C80.196 6.30599 80.6517 5.81445 81.2246 5.44336C81.804 5.06576 82.4323 4.87695 83.1094 4.87695ZM148.832 16H145.805V4.24219H141.928V1.72266H152.709V4.24219H148.832V16ZM160.766 4.87695C161.169 4.87695 161.505 4.90625 161.771 4.96484L161.547 7.75781C161.306 7.69271 161.013 7.66016 160.668 7.66016C159.717 7.66016 158.975 7.9043 158.441 8.39258C157.914 8.88086 157.65 9.56445 157.65 10.4434V16H154.672V5.08203H156.928L157.367 6.91797H157.514C157.852 6.30599 158.308 5.81445 158.881 5.44336C159.46 5.06576 160.089 4.87695 160.766 4.87695ZM163.627 2.25977C163.627 1.28971 164.167 0.804688 165.248 0.804688C166.329 0.804688 166.869 1.28971 166.869 2.25977C166.869 2.72201 166.732 3.08333 166.459 3.34375C166.192 3.59766 165.788 3.72461 165.248 3.72461C164.167 3.72461 163.627 3.23633 163.627 2.25977ZM166.732 16H163.754V5.08203H166.732V16ZM176.801 16L176.225 14.5156H176.146C175.645 15.1471 175.128 15.5866 174.594 15.834C174.066 16.0749 173.376 16.1953 172.523 16.1953C171.475 16.1953 170.648 15.8958 170.043 15.2969C169.444 14.6979 169.145 13.8451 169.145 12.7383C169.145 11.5794 169.548 10.7266 170.355 10.1797C171.169 9.6263 172.393 9.32031 174.027 9.26172L175.922 9.20312V8.72461C175.922 7.61784 175.355 7.06445 174.223 7.06445C173.35 7.06445 172.325 7.32812 171.146 7.85547L170.16 5.84375C171.417 5.1862 172.81 4.85742 174.34 4.85742C175.805 4.85742 176.928 5.17643 177.709 5.81445C178.49 6.45247 178.881 7.42253 178.881 8.72461V16H176.801ZM175.922 10.9414L174.77 10.9805C173.904 11.0065 173.259 11.1628 172.836 11.4492C172.413 11.7357 172.201 12.1719 172.201 12.7578C172.201 13.5977 172.683 14.0176 173.646 14.0176C174.337 14.0176 174.887 13.819 175.297 13.4219C175.714 13.0247 175.922 12.4974 175.922 11.8398V10.9414ZM184.936 16H181.957V0.804688H184.936V16ZM199.008 16H195.98V4.24219H192.104V1.72266H202.885V4.24219H199.008V16ZM207.221 10.5215C207.221 11.6022 207.396 12.4193 207.748 12.9727C208.106 13.526 208.686 13.8027 209.486 13.8027C210.281 13.8027 210.85 13.5293 211.195 12.9824C211.547 12.429 211.723 11.6087 211.723 10.5215C211.723 9.44076 211.547 8.63021 211.195 8.08984C210.844 7.54948 210.268 7.2793 209.467 7.2793C208.673 7.2793 208.1 7.54948 207.748 8.08984C207.396 8.6237 207.221 9.43424 207.221 10.5215ZM214.77 10.5215C214.77 12.2988 214.301 13.6888 213.363 14.6914C212.426 15.694 211.12 16.1953 209.447 16.1953C208.399 16.1953 207.475 15.9674 206.674 15.5117C205.873 15.0495 205.258 14.3887 204.828 13.5293C204.398 12.6699 204.184 11.6673 204.184 10.5215C204.184 8.73763 204.649 7.35091 205.58 6.36133C206.511 5.37174 207.82 4.87695 209.506 4.87695C210.554 4.87695 211.479 5.10482 212.279 5.56055C213.08 6.01628 213.695 6.67057 214.125 7.52344C214.555 8.3763 214.77 9.37565 214.77 10.5215ZM220.688 16.1953C219.405 16.1953 218.396 15.6973 217.66 14.7012C216.931 13.7051 216.566 12.3249 216.566 10.5605C216.566 8.77018 216.938 7.37695 217.68 6.38086C218.428 5.37826 219.457 4.87695 220.766 4.87695C222.139 4.87695 223.188 5.41081 223.91 6.47852H224.008C223.858 5.66471 223.783 4.9388 223.783 4.30078V0.804688H226.771V16H224.486L223.91 14.584H223.783C223.106 15.6582 222.074 16.1953 220.688 16.1953ZM221.732 13.8223C222.494 13.8223 223.051 13.6009 223.402 13.1582C223.76 12.7155 223.956 11.9635 223.988 10.9023V10.5801C223.988 9.4082 223.806 8.56836 223.441 8.06055C223.083 7.55273 222.497 7.29883 221.684 7.29883C221.02 7.29883 220.502 7.58203 220.131 8.14844C219.766 8.70833 219.584 9.52539 219.584 10.5996C219.584 11.6738 219.77 12.4811 220.141 13.0215C220.512 13.5553 221.042 13.8223 221.732 13.8223ZM236.82 16L236.244 14.5156H236.166C235.665 15.1471 235.147 15.5866 234.613 15.834C234.086 16.0749 233.396 16.1953 232.543 16.1953C231.495 16.1953 230.668 15.8958 230.062 15.2969C229.464 14.6979 229.164 13.8451 229.164 12.7383C229.164 11.5794 229.568 10.7266 230.375 10.1797C231.189 9.6263 232.413 9.32031 234.047 9.26172L235.941 9.20312V8.72461C235.941 7.61784 235.375 7.06445 234.242 7.06445C233.37 7.06445 232.344 7.32812 231.166 7.85547L230.18 5.84375C231.436 5.1862 232.829 4.85742 234.359 4.85742C235.824 4.85742 236.947 5.17643 237.729 5.81445C238.51 6.45247 238.9 7.42253 238.9 8.72461V16H236.82ZM235.941 10.9414L234.789 10.9805C233.923 11.0065 233.279 11.1628 232.855 11.4492C232.432 11.7357 232.221 12.1719 232.221 12.7578C232.221 13.5977 232.702 14.0176 233.666 14.0176C234.356 14.0176 234.906 13.819 235.316 13.4219C235.733 13.0247 235.941 12.4974 235.941 11.8398V10.9414ZM240.414 5.08203H243.676L245.736 11.2246C245.912 11.7585 246.033 12.39 246.098 13.1191H246.156C246.228 12.4486 246.368 11.8171 246.576 11.2246L248.598 5.08203H251.791L247.172 17.3965C246.749 18.5358 246.143 19.3887 245.355 19.9551C244.574 20.5215 243.66 20.8047 242.611 20.8047C242.097 20.8047 241.592 20.7493 241.098 20.6387V18.2754C241.456 18.36 241.846 18.4023 242.27 18.4023C242.797 18.4023 243.256 18.2396 243.646 17.9141C244.044 17.5951 244.353 17.11 244.574 16.459L244.75 15.9219L240.414 5.08203Z" fill="#333333"/>
<path d="M94.5059 16H91.5273V1.72266H99.7109V4.20312H94.5059V7.88477H99.3496V10.3555H94.5059V16ZM105.531 8.06055H106.508C107.465 8.06055 108.171 7.90104 108.627 7.58203C109.083 7.26302 109.311 6.76172 109.311 6.07812C109.311 5.40104 109.076 4.91927 108.607 4.63281C108.145 4.34635 107.426 4.20312 106.449 4.20312H105.531V8.06055ZM105.531 10.5215V16H102.504V1.72266H106.664C108.604 1.72266 110.04 2.07747 110.971 2.78711C111.902 3.49023 112.367 4.5612 112.367 6C112.367 6.83984 112.136 7.58854 111.674 8.24609C111.212 8.89714 110.557 9.4082 109.711 9.7793C111.859 12.9889 113.259 15.0625 113.91 16H110.551L107.143 10.5215H105.531ZM123.93 16H115.707V1.72266H123.93V4.20312H118.734V7.33789H123.568V9.81836H118.734V13.5H123.93V16ZM135.141 16H126.918V1.72266H135.141V4.20312H129.945V7.33789H134.779V9.81836H129.945V13.5H135.141V16Z" fill="#EC7979"/>
</svg>
